HIERARCHY
ROOT Hips
{
	OFFSET 0.000000 0.000000 0.000000
	CHANNELS 6 Xposition Yposition Zposition Zrotation Yrotation Xrotation 
	JOINT LeftUpLeg_virtual
	{
		OFFSET 0.000000 0.000000 0.000000
		CHANNELS 3 Zrotation Yrotation Xrotation
		JOINT LeftUpLeg
		{
			OFFSET 8.479694 -4.795517 -0.379053
			CHANNELS 3 Zrotation Yrotation Xrotation
			JOINT LeftLeg
			{
				OFFSET 0.485052 -32.551468 0.112863
				CHANNELS 3 Zrotation Yrotation Xrotation
				JOINT LeftFoot
				{
					OFFSET 0.438033 -32.635670 -3.012641
					CHANNELS 3 Zrotation Yrotation Xrotation
					JOINT LeftToeBase
					{
						OFFSET 0.970169 -13.225353 11.864223
						CHANNELS 3 Zrotation Yrotation Xrotation
						End Site
						{
							OFFSET 0.000000 0.000000 0.000000
						}
					}
				}
			}
		}
	}
	JOINT RightUpLeg_virtual
	{
		OFFSET 0.000000 0.000000 0.000000
		CHANNELS 3 Zrotation Yrotation Xrotation
		JOINT RightUpLeg
		{
			OFFSET -8.479694 -4.795517 -0.379053
			CHANNELS 3 Zrotation Yrotation Xrotation
			JOINT RightLeg
			{
				OFFSET -0.484100 -32.551483 0.112903
				CHANNELS 3 Zrotation Yrotation Xrotation
				JOINT RightFoot
				{
					OFFSET -0.438985 -32.635651 -3.012681
					CHANNELS 3 Zrotation Yrotation Xrotation
					JOINT RightToeBase
					{
						OFFSET -0.970169 -13.225354 11.864223
						CHANNELS 3 Zrotation Yrotation Xrotation
						End Site
						{
							OFFSET 0.000000 0.000000 0.000000
						}
					}
				}
			}
		}
	}
	JOINT Spine_virtual
	{
		OFFSET 0.000000 0.000000 0.000000
		CHANNELS 3 Zrotation Yrotation Xrotation
		JOINT Spine
		{
			OFFSET 0.000000 7.722015 1.166203
			CHANNELS 3 Zrotation Yrotation Xrotation
			JOINT Spine1
			{
				OFFSET 0.000000 12.024086 0.248766
				CHANNELS 3 Zrotation Yrotation Xrotation
				JOINT Spine2
				{
					OFFSET -0.000000 11.503036 -0.491240
					CHANNELS 3 Zrotation Yrotation Xrotation
					JOINT Neck_virtual
					{
						OFFSET 0.000000 0.000000 0.000000
						CHANNELS 3 Zrotation Yrotation Xrotation
						JOINT Neck
						{
							OFFSET 0.000000 18.430687 -3.123054
							CHANNELS 3 Zrotation Yrotation Xrotation
							JOINT Head
							{
								OFFSET -0.000000 9.051071 1.034021
								CHANNELS 3 Zrotation Yrotation Xrotation
								End Site
								{
									OFFSET 0.000000 0.000000 0.000000
								}
							}
						}
					}
					JOINT LeftShoulder_virtual
					{
						OFFSET 0.000000 0.000000 0.000000
						CHANNELS 3 Zrotation Yrotation Xrotation
						JOINT LeftShoulder
						{
							OFFSET 6.197824 13.665230 -4.064723
							CHANNELS 3 Zrotation Yrotation Xrotation
							JOINT LeftArm
							{
								OFFSET 7.778132 -0.187073 -1.709282
								CHANNELS 3 Zrotation Yrotation Xrotation
								JOINT LeftForeArm
								{
									OFFSET 21.954697 0.000000 -2.041093
									CHANNELS 3 Zrotation Yrotation Xrotation
									JOINT LeftHand
									{
										OFFSET 22.992908 0.000000 -0.870901
										CHANNELS 3 Zrotation Yrotation Xrotation
										End Site
										{
											OFFSET 0.000000 0.000000 0.000000
										}
									}
								}
							}
						}
					}
					JOINT RightShoulder_virtual
					{
						OFFSET 0.000000 0.000000 0.000000
						CHANNELS 3 Zrotation Yrotation Xrotation
						JOINT RightShoulder
						{
							OFFSET -6.197824 13.665230 -4.064723
							CHANNELS 3 Zrotation Yrotation Xrotation
							JOINT RightArm
							{
								OFFSET -7.778132 -0.187073 -1.709282
								CHANNELS 3 Zrotation Yrotation Xrotation
								JOINT RightForeArm
								{
									OFFSET -21.954697 0.000000 -2.041093
									CHANNELS 3 Zrotation Yrotation Xrotation
									JOINT RightHand
									{
										OFFSET -22.992908 0.000000 -0.870901
										CHANNELS 3 Zrotation Yrotation Xrotation
										End Site
										{
											OFFSET 0.000000 0.000000 0.000000
										}
									}
								}
							}
						}
					}
				}
			}
		}
	}
}
MOTION
Frames: 12
Frame Time: 0.033333
57.081062 78.822105 -60.223835 179.682715 -21.813575 -179.516605 -4.982142 -1.604552 13.691727 7.017029 -4.179069 -53.307250 2.618517 6.431865 24.312924 -7.753165 3.911537 8.626091 0.000000 0.000000 0.000000 1.203891 -3.584382 13.875626 9.031207 12.759512 -19.701841 0.407115 5.464392 41.314387 10.802472 9.717477 -10.724773 0.000000 0.000000 0.000000 -1.476176 -0.130167 2.045363 -6.250989 4.563085 -3.096891 -1.239503 -1.389701 10.700285 0.033881 -0.022678 0.108961 -1.164326 -0.194357 9.982184 1.729596 -2.044289 -1.321621 0.000000 0.000000 0.000000 0.874982 0.112917 6.786898 6.518636 -7.250623 5.763917 -54.138528 8.042307 2.623538 -174.610275 -82.143823 -163.152182 0.000000 0.000000 0.000000 -4.342295 1.820951 5.812739 36.954414 1.093214 10.720932 36.180117 -2.493532 11.320405 -5.151770 47.818769 -4.291233 0.000000 0.000000 0.000000 
57.124275 78.766190 -59.974907 179.748067 -22.784278 -179.566916 -4.642954 -1.540158 13.425626 6.825237 -5.217683 -53.267894 2.811648 6.558144 23.916107 -7.555292 3.126666 9.678332 0.000000 0.000000 0.000000 1.434480 -3.214882 13.720058 9.269925 12.154842 -19.664403 0.234930 5.218533 41.333443 10.781911 9.697934 -11.139979 0.000000 0.000000 0.000000 -1.001536 -0.315496 1.533579 -6.199141 4.299865 -3.142449 -1.239082 -1.361916 10.675020 0.047362 0.013709 0.084487 -1.074644 -0.094115 9.872408 1.793545 -1.950587 -1.077312 0.000000 0.000000 0.000000 0.908471 0.124515 6.550136 6.667421 -7.205639 6.074320 -53.815173 7.769574 2.768689 -173.000974 -82.160830 -164.818380 0.000000 0.000000 0.000000 -4.378116 1.815937 5.694570 37.417962 1.088506 11.095985 36.224858 -3.202256 11.520249 -5.090250 47.954792 -4.342239 0.000000 0.000000 0.000000 
57.086029 78.867416 -59.672047 179.700733 -23.331952 -179.592830 -4.255846 -1.910733 13.160557 7.252309 -5.950346 -53.177555 2.536744 6.363078 23.424094 -8.094824 1.769073 11.571468 0.000000 0.000000 0.000000 1.802930 -3.071246 13.207861 9.100458 12.006877 -19.450610 0.182648 5.346745 41.576444 10.599584 9.674789 -11.364251 0.000000 0.000000 0.000000 -0.585128 -0.449609 0.818738 -6.100494 4.184824 -3.099270 -1.354259 -1.305545 10.642284 -0.002974 0.022066 0.033941 -1.171565 -0.119418 9.854607 1.778799 -1.861016 -0.894498 0.000000 0.000000 0.000000 0.817443 0.172823 6.546551 6.684474 -6.799833 6.386046 -53.928250 7.808740 2.632945 -173.216548 -81.697546 -164.557863 0.000000 0.000000 0.000000 -4.440012 1.822333 5.566859 37.808512 1.379250 11.455528 36.027834 -3.405249 12.083686 -5.055172 48.053933 -4.246832 0.000000 0.000000 0.000000 
56.854374 79.114616 -59.402344 179.606040 -23.615603 -179.439902 -3.550385 -2.989565 12.559077 9.441554 -7.675260 -53.082598 1.648273 3.758462 22.895704 -11.203959 -1.366543 14.192492 0.000000 0.000000 0.000000 2.269914 -3.500920 12.608280 8.367544 12.881872 -19.457928 0.583546 5.847763 42.321095 9.992610 9.490486 -11.292324 0.000000 0.000000 0.000000 -0.365342 -0.877871 -0.052598 -5.933513 4.260217 -2.986699 -1.470821 -1.180736 10.606668 0.044813 0.040252 0.087501 -1.344266 -0.030244 9.726784 1.796535 -1.943917 -0.884691 0.000000 0.000000 0.000000 0.577690 0.305149 6.366339 6.445501 -5.976807 6.637084 -54.365427 8.135767 2.280383 -172.483710 -81.077815 -165.127610 0.000000 0.000000 0.000000 -4.677800 1.941480 5.525298 38.225717 2.073704 11.846466 35.395065 -3.127703 12.789761 -4.944228 48.197356 -3.851867 0.000000 0.000000 0.000000 
56.423199 79.430595 -59.188507 179.685830 -24.038193 -179.341397 -2.745510 -4.169918 11.701239 11.723676 -9.431537 -52.900286 0.656313 -0.220016 22.397532 -15.774663 -5.187538 16.647891 0.000000 0.000000 0.000000 3.822492 -4.167431 11.822391 6.424717 13.640497 -19.446037 1.195719 6.269082 42.757111 9.135179 9.201063 -11.066043 0.000000 0.000000 0.000000 -0.075007 -1.577286 -0.878859 -5.593066 4.463032 -2.823921 -1.708368 -1.079082 10.645409 0.052323 0.000067 0.117360 -1.520177 0.143993 9.760693 1.748151 -1.992092 -0.778080 0.000000 0.000000 0.000000 0.379043 0.460620 6.295035 6.156046 -5.069830 6.837453 -55.064077 8.474328 2.096174 -172.827036 -80.407548 -164.512592 0.000000 0.000000 0.000000 -4.841021 2.230330 5.494923 38.663317 2.741641 12.131228 34.685036 -2.547643 13.262514 -5.011953 48.371748 -3.860201 0.000000 0.000000 0.000000 
55.949051 79.743271 -58.993561 179.559963 -24.277323 -179.152133 -2.197006 -5.444270 10.797643 13.636778 -10.744156 -52.836298 -0.270603 -2.356967 22.377151 -17.916404 -7.126041 17.991044 0.000000 0.000000 0.000000 3.191751 -4.382687 11.087467 7.068776 14.878727 -18.979979 1.102001 6.764489 43.002611 8.029062 8.891911 -10.326720 0.000000 0.000000 0.000000 0.021271 -2.300162 -1.574125 -5.170269 4.831115 -2.663228 -1.830670 -0.926646 10.628499 -0.040276 0.031284 0.099678 -1.613484 0.233635 9.792830 1.594244 -2.105115 -0.843202 0.000000 0.000000 0.000000 0.318307 0.632012 6.296139 5.788814 -4.196358 7.042672 -55.743322 8.734181 2.382645 -173.019934 -79.992853 -163.975630 0.000000 0.000000 0.000000 -4.924365 2.358314 5.477735 39.052354 3.411339 12.332276 33.898014 -1.873134 13.569107 -5.309288 48.703825 -3.972686 0.000000 0.000000 0.000000 
55.554493 80.001167 -58.835293 179.895367 -25.376024 -179.009218 -1.884167 -6.516752 9.921242 15.231458 -11.517182 -53.221879 2.398393 -3.162296 23.648237 -15.070239 -5.494690 18.385862 0.000000 0.000000 0.000000 3.047143 -5.049553 10.377553 7.743794 15.809617 -18.554571 0.585805 6.428488 43.279927 7.201730 9.055172 -9.542962 0.000000 0.000000 0.000000 0.356621 -3.112236 -2.207122 -4.445139 5.081278 -2.576673 -1.887844 -0.986339 10.526269 -0.041330 -0.190569 0.150534 -1.788382 0.338184 9.713503 1.406949 -2.292584 -1.235401 0.000000 0.000000 0.000000 0.165899 0.679432 6.268430 5.536346 -3.462003 7.286982 -56.269291 8.782712 3.166806 -172.603962 -79.993010 -164.011625 0.000000 0.000000 0.000000 -5.104637 2.453035 5.436879 39.318435 3.947942 12.460884 33.158431 -1.109938 13.623277 -5.258672 49.132402 -3.840801 0.000000 0.000000 0.000000 
55.198940 80.185493 -58.688911 -179.878605 -26.130823 -178.924892 -1.692760 -7.067318 9.286094 15.480062 -11.250283 -53.207150 2.611724 -2.580329 24.278751 -12.104547 -3.507059 19.043247 0.000000 0.000000 0.000000 3.116246 -5.562057 9.754191 7.952823 16.422172 -18.266537 0.216728 6.554602 43.505020 6.418713 9.289552 -8.937769 0.000000 0.000000 0.000000 0.626749 -3.704348 -2.493973 -3.718714 5.371189 -2.586558 -1.880761 -0.969706 10.372110 0.000374 -0.109932 0.115964 -1.865090 0.074103 9.643483 1.061186 -2.357659 -1.414614 0.000000 0.000000 0.000000 0.109867 0.668748 6.231909 5.370034 -2.942507 7.437560 -56.779947 8.866333 4.204759 -171.566661 -80.179816 -164.698155 0.000000 0.000000 0.000000 -5.219771 2.442784 5.417797 39.561822 4.300142 12.427359 32.643871 -0.558760 13.382383 -5.595483 49.709540 -4.175784 0.000000 0.000000 0.000000 
54.854561 80.295776 -58.581459 -179.861817 -27.211976 -178.872559 -1.602113 -8.011888 8.911997 15.366923 -11.005264 -52.889870 2.057320 -2.334853 24.036320 -13.003626 -3.959879 19.472236 0.000000 0.000000 0.000000 3.272257 -6.264271 9.251275 8.074627 16.627056 -17.966685 0.098080 6.688546 43.543463 5.620801 9.381645 -8.614287 0.000000 0.000000 0.000000 0.786976 -4.014148 -2.570830 -3.060593 5.749369 -2.636659 -1.925826 -1.003969 10.359038 -0.049619 -0.226230 0.167600 -1.811253 0.142296 9.469023 0.661383 -2.494962 -1.492903 0.000000 0.000000 0.000000 0.213975 0.563513 6.429001 5.447062 -2.786610 7.586631 -57.083139 8.708974 5.624841 -172.068079 -80.418313 -163.909500 0.000000 0.000000 0.000000 -5.168043 2.214243 5.383294 39.982111 4.366544 12.274115 32.077136 -0.087519 12.824358 -5.806315 50.476167 -4.507249 0.000000 0.000000 0.000000 
54.490753 80.332314 -58.496933 -179.824292 -28.123338 -178.847452 -1.503059 -8.349953 8.575359 14.837954 -10.513839 -52.557800 1.456446 -1.155404 23.725579 -13.035265 -3.618592 19.846284 0.000000 0.000000 0.000000 3.413053 -6.622932 8.914445 8.069872 16.567266 -17.615647 0.020672 6.842405 43.397031 5.005582 9.395080 -8.536065 0.000000 0.000000 0.000000 0.854029 -4.304433 -2.452385 -2.405982 5.900453 -2.771666 -1.891949 -1.090080 10.288946 -0.038031 -0.218480 0.214479 -1.877795 0.157661 9.345867 0.039266 -2.424519 -1.522775 0.000000 0.000000 0.000000 0.231205 0.546516 6.359162 5.689119 -2.616302 7.742715 -57.182033 8.581487 7.038326 -170.286110 -80.757643 -165.544538 0.000000 0.000000 0.000000 -5.171170 2.172361 5.409830 40.211796 4.510178 12.265848 31.677622 0.268733 12.559036 -5.763168 51.522497 -4.723124 0.000000 0.000000 0.000000 
54.123848 80.330460 -58.468063 -179.783939 -28.857747 -178.851905 -1.539702 -8.481151 8.335966 14.450566 -10.175720 -51.984816 1.186614 -1.557567 23.632793 -14.601891 -4.381203 18.161304 0.000000 0.000000 0.000000 3.536289 -6.695739 8.773988 7.943218 16.163465 -17.188968 -0.032825 7.005131 43.086766 4.721836 9.417503 -8.740668 0.000000 0.000000 0.000000 0.872776 -4.716337 -2.198379 -1.912544 5.947460 -2.979941 -1.926368 -1.101845 10.167558 -0.059541 -0.181003 0.131925 -1.868668 0.134717 9.277654 -0.724135 -2.232886 -1.499795 0.000000 0.000000 0.000000 0.363718 0.642238 6.165993 6.000733 -2.551676 7.956965 -57.281218 8.598523 8.584399 -168.838889 -81.074052 -166.948552 0.000000 0.000000 0.000000 -5.099332 2.376663 5.357553 40.383623 4.552557 12.068929 31.438828 0.310089 12.647145 -5.509474 52.806119 -4.846383 0.000000 0.000000 0.000000 
53.855457 80.322693 -58.477600 -179.797627 -29.423270 -178.871931 -1.555425 -8.413988 8.499674 14.031347 -9.842837 -51.994918 0.941773 -1.755507 23.818826 -15.537958 -4.692257 16.910859 0.000000 0.000000 0.000000 3.664759 -6.556004 8.774176 7.759340 15.398004 -16.775206 -0.062414 7.144771 42.700686 4.821641 9.493690 -9.142668 0.000000 0.000000 0.000000 0.829251 -4.355627 -1.931884 -1.532666 6.186984 -3.238637 -1.944827 -1.271932 10.171994 -0.081423 -0.197558 0.168560 -1.878497 0.206478 9.133672 -1.480557 -2.002079 -1.277386 0.000000 0.000000 0.000000 0.369374 0.623693 6.176297 6.419755 -2.926096 8.005996 -57.307794 8.393221 10.128808 -168.807961 -81.330997 -167.059064 0.000000 0.000000 0.000000 -5.048866 2.071464 5.327091 40.599911 4.331648 11.848308 31.182255 0.362232 12.658508 -5.376511 54.140936 -5.124997 0.000000 0.000000 0.000000 
